<svg width="78" height="78" viewBox="0 0 78 78" fill="none" xmlns="http://www.w3.org/2000/svg">
<path d="M77.1301 37.7737L66.3155 33.9892C62 32.4785 57.2573 32.7812 53.1683 34.8277C49.08 36.8748 45.9952 40.4905 44.6185 44.8507L41.7888 53.8117L39.003 55.9007V37.1871C38.9998 34.6931 40.2471 32.3629 42.3239 30.9823L40.8812 28.819C38.0807 30.6821 36.3993 33.8235 36.4031 37.1871V39.7624L34.7224 38.0815L32.8842 39.9198L36.4031 43.4389V71.9971L33.8033 70.6971V68.0228C33.8026 61.4834 30.6588 55.3421 25.3537 51.5182C20.048 47.6951 13.2284 46.6547 7.02458 48.7234L0.894337 50.7667C0.360528 50.9425 0 51.4402 0 52.0019C0 52.5637 0.360528 53.0614 0.894337 53.2372L2.2863 53.7012C8.9586 55.9197 15.1847 59.3055 20.6738 63.7007L31.6909 72.5144C31.7652 72.5664 31.8458 72.6102 31.9302 72.6445L31.9219 72.6617L36.4031 74.9043V78.0007H39.003V59.1507L43.6822 55.6404L43.6683 55.6226C43.7216 55.5915 43.773 55.5573 43.8219 55.5198C52.0537 47.3142 62.7743 42.0704 74.3049 40.6098L76.8622 40.2905C77.4608 40.215 77.9286 39.7376 77.9927 39.1378C78.0568 38.5379 77.6994 37.973 77.1301 37.7737Z" fill="#589C17"/>
<path d="M50.0118 11.01L49.4024 1.22002C49.3637 0.604301 48.8978 0.100297 48.2866 0.0133343C47.6772 -0.0679157 47.0927 0.285649 46.8819 0.86392L42.6775 12.6312C41.1052 17.027 40.3017 21.6607 40.3029 26.3294V29.9006C40.3029 30.4262 40.6197 30.9004 41.1052 31.1016C41.5908 31.3022 42.15 31.1911 42.5219 30.8198C47.7433 25.5963 50.4713 18.3822 50.0118 11.01Z" fill="#589C17"/>
<path d="M19.4164 17.2333L10.8152 14.3737C10.3708 14.2251 9.88083 14.3273 9.53236 14.6409C9.18453 14.9551 9.03219 15.4318 9.13439 15.8895L10.5644 22.34C12.8539 32.865 22.194 40.3533 32.9648 40.3007H33.8032C34.5211 40.3007 35.1032 39.7186 35.1032 39.0007C35.1114 29.1224 28.7895 20.3506 19.4164 17.2333Z" fill="#589C17"/>
<path d="M25.8082 34.5808C20.8268 31.5148 16.7436 27.1883 13.9698 22.0384L9.87006 14.4212C9.30324 14.6656 8.99286 15.2813 9.1344 15.8825L10.5645 22.333C12.8514 32.8612 22.1921 40.3527 32.9648 40.3007H33.8032C34.099 40.2956 34.3834 40.1883 34.6087 39.9966L25.8082 34.5808Z" fill="#589C17"/>
<path d="M53.5853 43.8103C50.8465 45.766 48.6814 48.4193 47.3148 51.4947L46.7137 52.8468C54.5171 46.1576 64.1092 41.9022 74.3049 40.6072L76.7816 40.3006H64.544C60.6143 40.2994 56.7831 41.527 53.5853 43.8103Z" fill="#589C17"/>
<path d="M33.1844 73.2945L33.1584 73.1516C30.5731 58.9304 17.6322 48.9823 3.22507 50.1414L2.62017 50.1896L0.894337 50.7654C0.360528 50.9412 0 51.4389 0 52.0006C0 52.5624 0.360528 53.0601 0.894337 53.2352L2.2863 53.6999C8.9586 55.919 15.1847 59.3049 20.6738 63.7007L31.6909 72.5144C31.7652 72.5664 31.8458 72.6102 31.9302 72.6445L31.9219 72.6617L33.1844 73.2945Z" fill="#589C17"/>
</svg>
